PathFileType	4	(X/Y/Z)	C:/Users/opensim2020/Desktop/walking_exp_matlab/subject06_walking19_straight_03.trc	
DataRate	CameraRate	NumFrames	NumMarkers	Units	OrigDataRate	OrigDataStartFrame	OrigNumFrames	
100.00	100.00	4	49	mm	100.00	3267	358	
Frame#	Time	LFHD			RFHD			LBHD			RBHD			C7			T10			CLAV			STRN			RBAK			LSHO			LUPA			LELB			LFRM			LWRA			LWRB			LFIN			RSHO			RUPA			RELB			RFRM			RWRA			RWRB			RFIN			LASI			RASI			LPSI			RPSI			LTHI			LKNE			LTIB			LANK			LHEE			LTOE			RTHI			RKNE			RTIB			RANK			RHEE			RTOE			*39			*40			*41			*42			*43			*44			*45			*46			*47			*48			
		X1	Y1	Z1	X2	Y2	Z2	X3	Y3	Z3	X4	Y4	Z4	X5	Y5	Z5	X6	Y6	Z6	X7	Y7	Z7	X8	Y8	Z8	X9	Y9	Z9	X10	Y10	Z10	X11	Y11	Z11	X12	Y12	Z12	X13	Y13	Z13	X14	Y14	Z14	X15	Y15	Z15	X16	Y16	Z16	X17	Y17	Z17	X18	Y18	Z18	X19	Y19	Z19	X20	Y20	Z20	X21	Y21	Z21	X22	Y22	Z22	X23	Y23	Z23	X24	Y24	Z24	X25	Y25	Z25	X26	Y26	Z26	X27	Y27	Z27	X28	Y28	Z28	X29	Y29	Z29	X30	Y30	Z30	X31	Y31	Z31	X32	Y32	Z32	X33	Y33	Z33	X34	Y34	Z34	X35	Y35	Z35	X36	Y36	Z36	X37	Y37	Z37	X38	Y38	Z38	X39	Y39	Z39	X40	Y40	Z40	X41	Y41	Z41	X42	Y42	Z42	X43	Y43	Z43	X44	Y44	Z44	X45	Y45	Z45	X46	Y46	Z46	X47	Y47	Z47	X48	Y48	Z48	X49	Y49	Z49	

1	0.000	1401.32104	-1101.54858	1656.24475	1532.74463	-1095.91528	1651.51855	1407.89880	-1232.73328	1597.37683	1537.09448	-1225.90393	1597.49402	1465.72095	-1228.14233	1446.95068	1474.97668	-1265.57361	1118.49951	1470.83691	-1117.27466	1369.61511	1471.73938	-1080.17712	1193.63623	1548.75793	-1304.03064	1279.45508	1305.95593	-1167.36035	1399.82922	1234.87671	-1218.84912	1208.78760	1224.39355	-1257.72351	1103.27185	1192.73206	-1276.52051	955.79614	1210.53809	-1235.85681	827.77411	1194.44568	-1305.70154	839.26495	1178.92871	-1286.66577	751.28558	1629.72925	-1166.16943	1404.46375	1722.44360	-1205.77136	1209.08228	1736.67676	-1195.78442	1087.49487	1749.29932	-1166.96570	970.23315	1706.41455	-1094.83521	840.34290	1754.83777	-1144.01172	835.51935	1750.24060	-1097.46631	764.55743	1373.68848	-1080.92517	963.19031	1591.87036	-1101.49597	955.42731	1385.70190	-1239.29773	990.81573	1553.63403	-1248.31873	987.56317	1288.96069	-1105.93774	656.22424	1308.93665	-1074.94495	497.37323	1301.26172	-1063.26135	241.41211	1336.20361	-1033.97424	70.19640	1380.51099	-1074.08728	53.62978	1350.14600	-886.86285	47.13778	1638.41248	-1207.98999	626.87292	1621.85071	-1230.63843	501.67432	1628.96851	-1385.32214	280.43112	1593.67151	-1484.90625	120.15337	1551.79053	-1533.97363	112.12333	1584.88245	-1357.85596	35.71600	1461.90527	-1200.86572	1693.84326																											 
2	0.010	1398.75073	-1095.77844	1657.09827	1530.17493	-1090.28967	1652.80566	1405.21155	-1226.84033	1598.00220	1534.37402	-1220.29834	1598.47205	1463.26965	-1221.95691	1447.66418	1472.86255	-1258.75562	1119.21106	1468.85571	-1110.80078	1370.53589	1470.00525	-1073.17700	1194.63184	1546.37122	-1297.68994	1279.98840	1303.78613	-1160.32104	1400.64758	1233.02832	-1211.15698	1209.35669	1222.90063	-1249.32312	1103.57654	1191.64185	-1268.46667	956.18488	1210.07324	-1228.09387	827.85962	1193.11426	-1297.93469	839.88794	1178.88794	-1278.81873	751.48627	1627.60229	-1160.43604	1405.53931	1720.94849	-1200.70386	1210.47473	1734.37073	-1190.07642	1088.40137	1747.12659	-1162.25208	971.27460	1704.75159	-1089.80994	840.82996	1752.91626	-1139.36011	836.24255	1748.67297	-1093.14343	765.09271	1371.71521	-1074.16248	963.94562	1590.12769	-1094.79138	956.33252	1383.52051	-1232.37231	991.71735	1551.37378	-1241.52673	988.07037	1286.82776	-1100.29749	656.88470	1307.11646	-1070.38965	497.73764	1300.02234	-1060.37683	241.72601	1335.90137	-1033.49182	70.02266	1379.97156	-1073.87866	53.79225	1349.73279	-886.62427	46.37962	1636.95142	-1200.25024	627.09698	1620.48901	-1222.02234	501.73325	1628.79883	-1379.83875	282.77954	1593.90295	-1481.62439	123.88994	1552.90503	-1531.82678	118.39970	1584.54834	-1357.27612	35.64750	1458.95337	-1195.25293	1694.68433																											 
3	0.020	1396.22302	-1089.93555	1658.02893	1527.69788	-1084.71924	1654.06067	1402.55750	-1220.94043	1598.73047	1531.72668	-1214.70068	1599.53772	1460.86841	-1215.67358	1448.51367	1470.63379	-1251.97852	1119.99951	1467.02686	-1104.31055	1371.74072	1468.27319	-1066.41833	1195.77026	1543.99475	-1291.33167	1280.68262	1301.60107	-1153.27429	1401.55750	1231.36096	-1203.21057	1209.96118	1221.20349	-1242.38342	1104.40686	1190.51501	-1260.96753	956.87506	1210.92419	-1220.60913	828.67365	1192.02173	-1289.65454	840.30267	1178.86719	-1270.49207	751.75897	1625.48840	-1154.62097	1406.63428	1718.89526	-1195.05542	1211.62476	1732.11670	-1184.54016	1089.40820	1744.98926	-1156.59558	971.84668	1703.07703	-1084.79553	841.39716	1751.00220	-1134.65308	837.04559	1746.86877	-1088.76306	765.59314	1369.75024	-1067.38257	964.87848	1587.98816	-1088.38367	956.84686	1381.35522	-1225.46924	992.72394	1549.08960	-1234.81860	988.63684	1284.95508	-1094.45898	657.61389	1305.56067	-1065.95447	498.03683	1298.97571	-1057.64624	241.95392	1335.78674	-1033.05261	69.94177	1379.67712	-1073.86340	53.96146	1350.31836	-886.47888	45.78450	1635.59937	-1192.27795	627.44135	1619.11902	-1212.85193	501.75336	1628.26038	-1373.26038	285.01816	1594.07800	-1477.94067	128.01317	1553.01953	-1528.00244	123.43691	1584.28784	-1356.15540	35.61100	1456.16284	-1189.66956	1695.61450																											 
4	0.030	1393.75366	-1084.04883	1658.93665	1525.23645	-1079.15137	1655.29089	1399.95056	-1214.96753	1599.41235	1529.13599	-1208.99158	1600.52502	1458.52661	-1209.32727	1449.43250	1468.35034	-1245.24915	1120.87109	1465.02612	-1097.81873	1372.91736	1466.34241	-1059.78906	1196.85718	1541.60669	-1284.91272	1281.50220	1299.58191	-1146.15247	1402.55701	1229.49658	-1195.57690	1210.75439	1219.71387	-1233.98035	1104.97363	1189.39893	-1252.16895	957.12811	1210.91833	-1212.30212	829.14911	1191.10962	-1281.02405	840.75928	1179.04065	-1261.52197	751.97931	1623.36218	-1148.73181	1407.70532	1716.74438	-1189.20117	1212.65637	1729.85657	-1178.89685	1090.39539	1742.99573	-1151.50745	972.86841	1701.43579	-1079.71533	841.99603	1749.04602	-1129.85828	837.85016	1745.25989	-1084.20935	766.23956	1367.65820	-1060.63000	965.85791	1585.92029	-1081.83081	957.70447	1379.14844	-1218.62158	993.66119	1546.75562	-1228.06030	989.08551	1283.35571	-1088.65515	658.32086	1304.16077	-1061.70190	498.26614	1298.46118	-1055.08411	242.05142	1335.88403	-1032.51331	69.96450	1379.57288	-1073.66357	54.09804	1351.50940	-886.19147	45.47779	1634.16614	-1183.99719	627.74414	1617.95361	-1203.34607	501.81656	1627.78430	-1366.10254	287.26569	1594.12622	-1473.93726	132.30545	1552.93103	-1523.58911	128.66740	1583.92554	-1355.71948	36.05025	1453.32849	-1183.96350	1696.47314																											 
